Rokkitt-Light.ufo
<glyph name="ampersand" format="1">
  <advance width="1114"/>
  <unicode hex="0026"/>
  <outline>
    <contour>
      <point x="889" y="468" type="curve"/>
      <point x="951" y="448" type="line"/>
      <point x="917" y="325"/>
      <point x="810" y="203"/>
      <point x="790" y="181" type="curve"/>
      <point x="856" y="70" type="line"/>
      <point x="1022" y="70" type="line"/>
      <point x="1008" y="0" type="line"/>
      <point x="806" y="0" type="line"/>
      <point x="728" y="126" type="line"/>
      <point x="592" y="4"/>
      <point x="452" y="-23"/>
      <point x="330" y="-23" type="curve" smooth="yes"/>
      <point x="128" y="-23"/>
      <point x="-12" y="101"/>
      <point x="-12" y="268" type="curve" smooth="yes"/>
      <point x="-12" y="291"/>
      <point x="-9" y="313"/>
      <point x="-5" y="336" type="curve" smooth="yes"/>
      <point x="36" y="525"/>
      <point x="134" y="652"/>
      <point x="393" y="730" type="curve"/>
      <point x="306" y="898" type="line" smooth="yes"/>
      <point x="289" y="931"/>
      <point x="282" y="967"/>
      <point x="282" y="1002" type="curve" smooth="yes"/>
      <point x="282" y="1152"/>
      <point x="428" y="1306"/>
      <point x="631" y="1306" type="curve" smooth="yes"/>
      <point x="791" y="1306"/>
      <point x="881" y="1225"/>
      <point x="881" y="1113" type="curve" smooth="yes"/>
      <point x="881" y="1098"/>
      <point x="879" y="1082"/>
      <point x="876" y="1065" type="curve" smooth="yes"/>
      <point x="845" y="920"/>
      <point x="753" y="801"/>
      <point x="493" y="704" type="curve"/>
      <point x="757" y="239" type="line"/>
      <point x="776" y="259"/>
      <point x="854" y="344"/>
    </contour>
    <contour>
      <point x="697" y="184" type="curve"/>
      <point x="419" y="672" type="line"/>
      <point x="186" y="608"/>
      <point x="103" y="486"/>
      <point x="75" y="349" type="curve" smooth="yes"/>
      <point x="71" y="329"/>
      <point x="69" y="311"/>
      <point x="69" y="293" type="curve" smooth="yes"/>
      <point x="69" y="161"/>
      <point x="172" y="50"/>
      <point x="353" y="50" type="curve" smooth="yes"/>
      <point x="469" y="50"/>
      <point x="575" y="70"/>
    </contour>
    <contour>
      <point x="382" y="925" type="curve" smooth="yes"/>
      <point x="468" y="758" type="line"/>
      <point x="703" y="841"/>
      <point x="768" y="927"/>
      <point x="798" y="1063" type="curve" smooth="yes"/>
      <point x="800" y="1076"/>
      <point x="802" y="1088"/>
      <point x="802" y="1100" type="curve" smooth="yes"/>
      <point x="802" y="1187"/>
      <point x="723" y="1231"/>
      <point x="618" y="1231" type="curve" smooth="yes"/>
      <point x="483" y="1231"/>
      <point x="358" y="1132"/>
      <point x="358" y="1011" type="curve" smooth="yes"/>
      <point x="358" y="981"/>
      <point x="366" y="955"/>
    </contour>
  </outline>
</glyph>
<glyph name="hyphen" format="1">
  <advance width="621"/>
  <unicode hex="002D"/>
  <outline>
    <contour>
      <point x="502.999" y="500.3" type="line"/>
      <point x="474.999" y="415.3" type="line"/>
      <point x="152.999" y="415.3" type="line"/>
      <point x="180.999" y="500.3" type="line"/>
    </contour>
  </outline>
</glyph>
<glyph name="greater" format="1">
  <advance width="827"/>
  <unicode hex="003E"/>
  <outline>
    <contour>
      <point x="930" y="637" type="line"/>
      <point x="-92" y="-23" type="line"/>
      <point x="-71" y="70" type="line"/>
      <point x="812" y="637" type="line"/>
      <point x="169" y="1209" type="line"/>
      <point x="191" y="1306" type="line"/>
    </contour>
  </outline>
</glyph>
<glyph name="A" format="1">
  <advance width="1315"/>
  <unicode hex="0041"/>
  <outline>
    <contour>
      <point x="-88" y="62" type="line"/>
      <point x="68" y="62" type="line"/>
      <point x="766" y="1311" type="line"/>
      <point x="870" y="1311" type="line"/>
      <point x="1077" y="62" type="line"/>
      <point x="1224" y="62" type="line"/>
      <point x="1224" y="0" type="line"/>
      <point x="829" y="0" type="line"/>
      <point x="829" y="62" type="line"/>
      <point x="991" y="62" type="line"/>
      <point x="924" y="451" type="line"/>
      <point x="373" y="451" type="line"/>
      <point x="153" y="62" type="line"/>
      <point x="307" y="62" type="line"/>
      <point x="307" y="0" type="line"/>
      <point x="-88" y="0" type="line"/>
    </contour>
    <contour>
      <point x="799" y="1221" type="line"/>
      <point x="407" y="512" type="line"/>
      <point x="914" y="512" type="line"/>
    </contour>
  </outline>
</glyph>
<glyph name="C" format="1">
  <advance width="1159"/>
  <unicode hex="0043"/>
  <outline>
    <contour>
      <point x="1142" y="1006" type="line"/>
      <point x="1088" y="991" type="line"/>
      <point x="1056" y="1166"/>
      <point x="931" y="1265"/>
      <point x="755" y="1265" type="curve" smooth="yes"/>
      <point x="379" y="1265"/>
      <point x="179" y="899"/>
      <point x="179" y="562" type="curve" smooth="yes"/>
      <point x="179" y="276"/>
      <point x="330" y="48"/>
      <point x="641" y="48" type="curve" smooth="yes"/>
      <point x="810" y="48"/>
      <point x="968" y="150"/>
      <point x="1048" y="292" type="curve"/>
      <point x="1115" y="253" type="line"/>
      <point x="1008" y="75"/>
      <point x="833" y="-20"/>
      <point x="622" y="-20" type="curve" smooth="yes"/>
      <point x="274" y="-20"/>
      <point x="92" y="252"/>
      <point x="92" y="571" type="curve" smooth="yes"/>
      <point x="92" y="952"/>
      <point x="343" y="1332"/>
      <point x="753" y="1332" type="curve" smooth="yes"/>
      <point x="885" y="1332"/>
      <point x="1024" y="1276"/>
      <point x="1092" y="1158" type="curve"/>
      <point x="1114" y="1311" type="line"/>
      <point x="1184" y="1311" type="line"/>
    </contour>
  </outline>
</glyph>
<glyph name="E" format="1">
  <advance width="1022"/>
  <unicode hex="0045"/>
  <outline>
    <contour>
      <point x="838" y="334" type="line"/>
      <point x="922" y="334" type="line"/>
      <point x="866" y="62" type="line"/>
      <point x="855" y="0" type="line"/>
      <point x="-57" y="0" type="line"/>
      <point x="-46" y="62" type="line"/>
      <point x="132" y="62" type="line"/>
      <point x="377" y="1248" type="line"/>
      <point x="183" y="1248" type="line"/>
      <point x="194" y="1311" type="line"/>
      <point x="1071" y="1311" type="line"/>
      <point x="1015" y="1039" type="line"/>
      <point x="928" y="1039" type="line"/>
      <point x="972" y="1248" type="line"/>
      <point x="463" y="1248" type="line"/>
      <point x="349" y="701" type="line"/>
      <point x="790" y="701" type="line"/>
      <point x="775" y="639" type="line"/>
      <point x="336" y="639" type="line"/>
      <point x="215" y="62" type="line"/>
      <point x="783" y="62" type="line"/>
    </contour>
  </outline>
</glyph>
<glyph name="F" format="1">
  <advance width="942"/>
  <unicode hex="0046"/>
  <outline>
    <contour>
      <point x="183" y="1248" type="line"/>
      <point x="193" y="1311" type="line"/>
      <point x="1071" y="1311" type="line"/>
      <point x="1014" y="1039" type="line"/>
      <point x="929" y="1039" type="line"/>
      <point x="972" y="1248" type="line"/>
      <point x="463" y="1248" type="line"/>
      <point x="352" y="720" type="line"/>
      <point x="789" y="720" type="line"/>
      <point x="775" y="659" type="line"/>
      <point x="340" y="659" type="line"/>
      <point x="214" y="62" type="line"/>
      <point x="396" y="62" type="line"/>
      <point x="384" y="0" type="line"/>
      <point x="-57" y="0" type="line"/>
      <point x="-46" y="62" type="line"/>
      <point x="131" y="62" type="line"/>
      <point x="377" y="1248" type="line"/>
    </contour>
  </outline>
</glyph>
<glyph name="H" format="1">
  <advance width="1516"/>
  <unicode hex="0048"/>
  <outline>
    <contour>
      <point x="1154" y="1248" type="line"/>
      <point x="1166" y="1311" type="line"/>
      <point x="1636" y="1311" type="line"/>
      <point x="1624" y="1248" type="line"/>
      <point x="1435" y="1248" type="line"/>
      <point x="1189" y="62" type="line"/>
      <point x="1399" y="62" type="line"/>
      <point x="1387" y="0" type="line"/>
      <point x="917" y="0" type="line"/>
      <point x="927" y="62" type="line"/>
      <point x="1104" y="62" type="line"/>
      <point x="1217" y="636" type="line"/>
      <point x="337" y="636" type="line"/>
      <point x="216" y="62" type="line"/>
      <point x="427" y="62" type="line"/>
      <point x="415" y="0" type="line"/>
      <point x="-55" y="0" type="line"/>
      <point x="-44" y="62" type="line"/>
      <point x="133" y="62" type="line"/>
      <point x="378" y="1248" type="line"/>
      <point x="183" y="1248" type="line"/>
      <point x="194" y="1311" type="line"/>
      <point x="664" y="1311" type="line"/>
      <point x="654" y="1248" type="line"/>
      <point x="464" y="1248" type="line"/>
      <point x="350" y="699" type="line"/>
      <point x="1229" y="699" type="line"/>
      <point x="1336" y="1248" type="line"/>
    </contour>
  </outline>
</glyph>
<glyph name="I" format="1">
  <advance width="545"/>
  <unicode hex="0049"/>
  <outline>
    <contour>
      <point x="183" y="1248" type="line"/>
      <point x="193" y="1311" type="line"/>
      <point x="664" y="1311" type="line"/>
      <point x="653" y="1248" type="line"/>
      <point x="463" y="1248" type="line"/>
      <point x="215" y="62" type="line"/>
      <point x="424" y="62" type="line"/>
      <point x="413" y="0" type="line"/>
      <point x="-57" y="0" type="line"/>
      <point x="-46" y="62" type="line"/>
      <point x="132" y="62" type="line"/>
      <point x="377" y="1248" type="line"/>
    </contour>
  </outline>
</glyph>
<glyph name="K" format="1">
  <advance width="1235"/>
  <unicode hex="004B"/>
  <outline>
    <contour>
      <point x="464" y="1248" type="line"/>
      <point x="343" y="666" type="line"/>
      <point x="1020" y="1248" type="line"/>
      <point x="913" y="1248" type="line"/>
      <point x="927" y="1311" type="line"/>
      <point x="1335" y="1311" type="line"/>
      <point x="1323" y="1248" type="line"/>
      <point x="1140" y="1248" type="line"/>
      <point x="464" y="671" type="line"/>
      <point x="1002" y="62" type="line"/>
      <point x="1213" y="62" type="line"/>
      <point x="1201" y="0" type="line"/>
      <point x="750" y="0" type="line"/>
      <point x="761" y="62" type="line"/>
      <point x="903" y="62" type="line"/>
      <point x="392" y="639" type="line"/>
      <point x="326" y="586" type="line"/>
      <point x="216" y="62" type="line"/>
      <point x="427" y="62" type="line"/>
      <point x="415" y="0" type="line"/>
      <point x="-55" y="0" type="line"/>
      <point x="-44" y="62" type="line"/>
      <point x="133" y="62" type="line"/>
      <point x="378" y="1248" type="line"/>
      <point x="183" y="1248" type="line"/>
      <point x="194" y="1311" type="line"/>
      <point x="664" y="1311" type="line"/>
      <point x="654" y="1248" type="line"/>
    </contour>
  </outline>
</glyph>
<glyph name="N" format="1">
  <advance width="1397"/>
  <unicode hex="004E"/>
  <outline>
    <contour>
      <point x="1068" y="1249" type="line"/>
      <point x="1079" y="1312" type="line"/>
      <point x="1546" y="1312" type="line"/>
      <point x="1534" y="1249" type="line"/>
      <point x="1337" y="1249" type="line"/>
      <point x="1083" y="0" type="line"/>
      <point x="1003" y="0" type="line"/>
      <point x="449" y="1192" type="line"/>
      <point x="212" y="62" type="line"/>
      <point x="423" y="62" type="line"/>
      <point x="411" y="0" type="line"/>
      <point x="-59" y="0" type="line"/>
      <point x="-48" y="62" type="line"/>
      <point x="136" y="62" type="line"/>
      <point x="382" y="1249" type="line"/>
      <point x="179" y="1249" type="line"/>
      <point x="190" y="1312" type="line"/>
      <point x="476" y="1312" type="line"/>
      <point x="1028" y="126" type="line"/>
      <point x="1251" y="1249" type="line"/>
    </contour>
  </outline>
</glyph>
<glyph name="O" format="1">
  <advance width="1335"/>
  <unicode hex="004F"/>
  <outline>
    <contour>
      <point x="92" y="566" type="curve" smooth="yes"/>
      <point x="92" y="970"/>
      <point x="344" y="1332"/>
      <point x="751" y="1332" type="curve" smooth="yes"/>
      <point x="1075" y="1332"/>
      <point x="1274" y="1064"/>
      <point x="1274" y="735" type="curve" smooth="yes"/>
      <point x="1274" y="333"/>
      <point x="1042" y="-20"/>
      <point x="635" y="-20" type="curve" smooth="yes"/>
      <point x="277" y="-20"/>
      <point x="92" y="266"/>
    </contour>
    <contour>
      <point x="1190" y="733" type="curve" smooth="yes"/>
      <point x="1190" y="1004"/>
      <point x="1068" y="1263"/>
      <point x="753" y="1263" type="curve" smooth="yes"/>
      <point x="377" y="1263"/>
      <point x="179" y="905"/>
      <point x="179" y="564" type="curve" smooth="yes"/>
      <point x="179" y="331"/>
      <point x="306" y="48"/>
      <point x="633" y="48" type="curve" smooth="yes"/>
      <point x="1013" y="48"/>
      <point x="1190" y="410"/>
    </contour>
  </outline>
</glyph>
<glyph name="Q" format="1">
  <advance width="1335"/>
  <unicode hex="0051"/>
  <outline>
    <contour>
      <point x="475" y="23" type="curve"/>
      <point x="623" y="9" type="line"/>
      <point x="715" y="-84"/>
      <point x="794" y="-122"/>
      <point x="885" y="-122" type="curve" smooth="yes"/>
      <point x="929" y="-122"/>
      <point x="975" y="-113"/>
      <point x="1029" y="-95" type="curve"/>
      <point x="1038" y="-163" type="line"/>
      <point x="978" y="-181"/>
      <point x="927" y="-190"/>
      <point x="879" y="-190" type="curve" smooth="yes"/>
      <point x="726" y="-190"/>
      <point x="621" y="-103"/>
    </contour>
    <contour>
      <point x="92" y="566" type="curve" smooth="yes"/>
      <point x="92" y="970"/>
      <point x="344" y="1332"/>
      <point x="751" y="1332" type="curve" smooth="yes"/>
      <point x="1075" y="1332"/>
      <point x="1274" y="1064"/>
      <point x="1274" y="735" type="curve" smooth="yes"/>
      <point x="1274" y="333"/>
      <point x="1042" y="-20"/>
      <point x="635" y="-20" type="curve" smooth="yes"/>
      <point x="277" y="-20"/>
      <point x="92" y="266"/>
    </contour>
    <contour>
      <point x="1190" y="733" type="curve" smooth="yes"/>
      <point x="1190" y="1004"/>
      <point x="1068" y="1263"/>
      <point x="753" y="1263" type="curve" smooth="yes"/>
      <point x="377" y="1263"/>
      <point x="179" y="905"/>
      <point x="179" y="564" type="curve" smooth="yes"/>
      <point x="179" y="331"/>
      <point x="306" y="48"/>
      <point x="633" y="48" type="curve" smooth="yes"/>
      <point x="1013" y="48"/>
      <point x="1190" y="410"/>
    </contour>
  </outline>
</glyph>
<glyph name="S" format="1">
  <advance width="915"/>
  <unicode hex="0053"/>
  <outline>
    <contour>
      <point x="33" y="0" type="line"/>
      <point x="81" y="298" type="line"/>
      <point x="154" y="313" type="line"/>
      <point x="140" y="227" type="line"/>
      <point x="123" y="103"/>
      <point x="257" y="48"/>
      <point x="401" y="48" type="curve" smooth="yes"/>
      <point x="553" y="48"/>
      <point x="713" y="107"/>
      <point x="713" y="311" type="curve" smooth="yes"/>
      <point x="713" y="619"/>
      <point x="197" y="704"/>
      <point x="197" y="1007" type="curve" smooth="yes"/>
      <point x="197" y="1219"/>
      <point x="369" y="1332"/>
      <point x="575" y="1332" type="curve" smooth="yes"/>
      <point x="655" y="1332"/>
      <point x="784" y="1292"/>
      <point x="811" y="1233" type="curve"/>
      <point x="817" y="1311" type="line"/>
      <point x="881" y="1311" type="line"/>
      <point x="856" y="1065" type="line"/>
      <point x="789" y="1045" type="line"/>
      <point x="795" y="1100" type="line"/>
      <point x="806" y="1184"/>
      <point x="701" y="1265"/>
      <point x="570" y="1265" type="curve" smooth="yes"/>
      <point x="405" y="1265"/>
      <point x="288" y="1177"/>
      <point x="288" y="1016" type="curve" smooth="yes"/>
      <point x="288" y="747"/>
      <point x="804" y="662"/>
      <point x="804" y="310" type="curve" smooth="yes"/>
      <point x="804" y="101"/>
      <point x="615" y="-20"/>
      <point x="389" y="-20" type="curve" smooth="yes"/>
      <point x="174" y="-20"/>
      <point x="119" y="88"/>
      <point x="119" y="88" type="curve"/>
      <point x="105" y="0" type="line"/>
    </contour>
  </outline>
</glyph>
<glyph name="T" format="1">
  <advance width="981"/>
  <unicode hex="0054"/>
  <outline>
    <contour>
      <point x="132" y="1312" type="line"/>
      <point x="1100" y="1312" type="line"/>
      <point x="1044" y="1040" type="line"/>
      <point x="958" y="1040" type="line"/>
      <point x="1002" y="1249" type="line"/>
      <point x="637" y="1249" type="line"/>
      <point x="389" y="62" type="line"/>
      <point x="599" y="62" type="line"/>
      <point x="588" y="0" type="line"/>
      <point x="118" y="0" type="line"/>
      <point x="129" y="62" type="line"/>
      <point x="306" y="62" type="line"/>
      <point x="550" y="1249" type="line"/>
      <point x="204" y="1249" type="line"/>
      <point x="161" y="1040" type="line"/>
      <point x="76" y="1040" type="line"/>
    </contour>
  </outline>
</glyph>
<glyph name="U" format="1">
  <advance width="1344"/>
  <unicode hex="0055"/>
  <outline>
    <contour>
      <point x="1301" y="1249" type="line"/>
      <point x="1124" y="404" type="line"/>
      <point x="1054.58" y="108"/>
      <point x="809.978" y="-20"/>
      <point x="583" y="-20" type="curve" smooth="yes"/>
      <point x="342.114" y="-20"/>
      <point x="135.131" y="112.466"/>
      <point x="135.131" y="330.903" type="curve" smooth="yes"/>
      <point x="135.131" y="357.978"/>
      <point x="138.311" y="386.373"/>
      <point x="145" y="416" type="curve" smooth="yes"/>
      <point x="315" y="1249" type="line"/>
      <point x="120" y="1249" type="line"/>
      <point x="130" y="1312" type="line"/>
      <point x="602" y="1312" type="line"/>
      <point x="590" y="1249" type="line"/>
      <point x="402" y="1249" type="line"/>
      <point x="226" y="414" type="line" smooth="yes"/>
      <point x="219.66" y="388.066"/>
      <point x="216.663" y="363.228"/>
      <point x="216.663" y="339.578" type="curve" smooth="yes"/>
      <point x="216.663" y="159.215"/>
      <point x="390.967" y="48"/>
      <point x="586" y="48" type="curve" smooth="yes"/>
      <point x="773.928" y="48"/>
      <point x="981.709" y="153.829"/>
      <point x="1035" y="404" type="curve" smooth="yes"/>
      <point x="1215" y="1249" type="line"/>
      <point x="1021" y="1249" type="line"/>
      <point x="1030" y="1312" type="line"/>
      <point x="1482" y="1312" type="line"/>
      <point x="1491" y="1249" type="line"/>
    </contour>
  </outline>
</glyph>
<glyph name="V" format="1">
  <advance width="1198"/>
  <unicode hex="0056"/>
  <outline>
    <contour>
      <point x="1406" y="1220" type="line"/>
      <point x="1250" y="1220" type="line"/>
      <point x="518" y="0" type="line"/>
      <point x="413" y="0" type="line"/>
      <point x="204" y="1220" type="line"/>
      <point x="55" y="1220" type="line"/>
      <point x="55" y="1283" type="line"/>
      <point x="451" y="1283" type="line"/>
      <point x="451" y="1220" type="line"/>
      <point x="303" y="1220" type="line"/>
      <point x="488" y="105" type="line"/>
      <point x="1147" y="1220" type="line"/>
      <point x="1011" y="1220" type="line"/>
      <point x="1011" y="1283" type="line"/>
      <point x="1406" y="1283" type="line"/>
    </contour>
  </outline>
</glyph>
<glyph name="Z" format="1">
  <advance width="1018"/>
  <unicode hex="005A"/>
  <outline>
    <contour>
      <point x="848" y="334" type="line"/>
      <point x="932" y="334" type="line"/>
      <point x="865" y="0" type="line"/>
      <point x="-53" y="0" type="line"/>
      <point x="933" y="1248" type="line"/>
      <point x="307" y="1248" type="line"/>
      <point x="251" y="976" type="line"/>
      <point x="166" y="976" type="line"/>
      <point x="235" y="1311" type="line"/>
      <point x="1083" y="1311" type="line"/>
      <point x="99" y="62" type="line"/>
      <point x="792" y="62" type="line"/>
    </contour>
  </outline>
</glyph>
<glyph name="a" format="1">
  <advance width="1020"/>
  <unicode hex="0061"/>
  <outline>
    <contour>
      <point x="66" y="317" type="curve" smooth="yes"/>
      <point x="66" y="562"/>
      <point x="238" y="851"/>
      <point x="489" y="851" type="curve" smooth="yes"/>
      <point x="621" y="851"/>
      <point x="702" y="769"/>
      <point x="733" y="676" type="curve"/>
      <point x="765" y="828" type="line"/>
      <point x="854" y="828" type="line"/>
      <point x="723" y="163" type="line"/>
      <point x="719" y="150"/>
      <point x="717" y="138"/>
      <point x="717" y="123" type="curve" smooth="yes"/>
      <point x="717" y="88"/>
      <point x="730" y="52"/>
      <point x="777" y="52" type="curve" smooth="yes"/>
      <point x="831" y="52"/>
      <point x="869" y="95"/>
      <point x="902" y="210" type="curve"/>
      <point x="960" y="188" type="line"/>
      <point x="932" y="87"/>
      <point x="877" y="-9"/>
      <point x="769" y="-9" type="curve" smooth="yes"/>
      <point x="693" y="-9"/>
      <point x="648" y="45"/>
      <point x="648" y="116" type="curve" smooth="yes"/>
      <point x="648" y="133"/>
      <point x="648" y="149"/>
      <point x="653" y="166" type="curve"/>
      <point x="643" y="143"/>
      <point x="566" y="-18"/>
      <point x="371" y="-18" type="curve" smooth="yes"/>
      <point x="156" y="-18"/>
      <point x="66" y="138"/>
    </contour>
    <contour>
      <point x="705" y="544" type="curve" smooth="yes"/>
      <point x="705" y="662"/>
      <point x="637" y="789"/>
      <point x="497" y="789" type="curve" smooth="yes"/>
      <point x="289" y="789"/>
      <point x="148" y="535"/>
      <point x="148" y="323" type="curve" smooth="yes"/>
      <point x="148" y="172"/>
      <point x="216" y="43"/>
      <point x="380" y="43" type="curve" smooth="yes"/>
      <point x="603" y="43"/>
      <point x="705" y="355"/>
    </contour>
  </outline>
</glyph>
<glyph name="b" format="1">
  <advance width="948"/>
  <unicode hex="0062"/>
  <outline>
    <contour>
      <point x="426" y="1265" type="line"/>
      <point x="307" y="686" type="line"/>
      <point x="366" y="793"/>
      <point x="473" y="851"/>
      <point x="577" y="851" type="curve" smooth="yes"/>
      <point x="786" y="851"/>
      <point x="883" y="674"/>
      <point x="883" y="479" type="curve" smooth="yes"/>
      <point x="883" y="243"/>
      <point x="740" y="-18"/>
      <point x="480" y="-18" type="curve" smooth="yes"/>
      <point x="358" y="-18"/>
      <point x="236" y="65"/>
      <point x="209" y="233" type="curve"/>
      <point x="169" y="0" type="line"/>
      <point x="84" y="0" type="line"/>
      <point x="328" y="1208" type="line"/>
      <point x="160" y="1208" type="line"/>
      <point x="172" y="1265" type="line"/>
    </contour>
    <contour>
      <point x="811" y="488" type="curve" smooth="yes"/>
      <point x="811" y="647"/>
      <point x="739" y="789"/>
      <point x="581" y="789" type="curve" smooth="yes"/>
      <point x="366" y="789"/>
      <point x="241" y="555"/>
      <point x="241" y="349" type="curve" smooth="yes"/>
      <point x="241" y="188"/>
      <point x="317" y="43"/>
      <point x="482" y="43" type="curve" smooth="yes"/>
      <point x="690" y="43"/>
      <point x="811" y="281"/>
    </contour>
  </outline>
</glyph>
<glyph name="d" format="1">
  <advance width="1030"/>
  <unicode hex="0064"/>
  <outline>
    <contour>
      <point x="138" y="332" type="curve" smooth="yes"/>
      <point x="138" y="177"/>
      <point x="206" y="43"/>
      <point x="368" y="43" type="curve" smooth="yes"/>
      <point x="584" y="43"/>
      <point x="708" y="276"/>
      <point x="708" y="482" type="curve" smooth="yes"/>
      <point x="708" y="644"/>
      <point x="633" y="788"/>
      <point x="467" y="788" type="curve" smooth="yes"/>
      <point x="270" y="788"/>
      <point x="138" y="542"/>
    </contour>
    <contour>
      <point x="855" y="1203" type="line"/>
      <point x="687" y="1203" type="line"/>
      <point x="699" y="1260" type="line"/>
      <point x="953" y="1260" type="line"/>
      <point x="736" y="181" type="line" smooth="yes"/>
      <point x="733" y="166"/>
      <point x="730" y="148"/>
      <point x="730" y="130" type="curve" smooth="yes"/>
      <point x="730" y="90"/>
      <point x="742" y="52"/>
      <point x="788" y="52" type="curve" smooth="yes"/>
      <point x="853" y="52"/>
      <point x="892" y="134"/>
      <point x="914" y="210" type="curve"/>
      <point x="971" y="188" type="line"/>
      <point x="944" y="64"/>
      <point x="874" y="-9"/>
      <point x="784" y="-9" type="curve" smooth="yes"/>
      <point x="683" y="-9"/>
      <point x="649" y="54"/>
      <point x="649" y="129" type="curve" smooth="yes"/>
      <point x="649" y="136"/>
      <point x="649" y="147"/>
      <point x="650" y="154" type="curve"/>
      <point x="591" y="48"/>
      <point x="476" y="-18"/>
      <point x="372" y="-18" type="curve" smooth="yes"/>
      <point x="159" y="-18"/>
      <point x="66" y="153"/>
      <point x="66" y="344" type="curve" smooth="yes"/>
      <point x="66" y="582"/>
      <point x="219" y="850"/>
      <point x="469" y="850" type="curve" smooth="yes"/>
      <point x="593" y="850"/>
      <point x="696" y="782"/>
      <point x="736" y="624" type="curve"/>
    </contour>
  </outline>
</glyph>
<glyph name="f" format="1">
  <advance width="584"/>
  <unicode hex="0066"/>
  <outline>
    <contour>
      <point x="765" y="1209" type="curve"/>
      <point x="718" y="1159" type="line"/>
      <point x="693" y="1190"/>
      <point x="659" y="1206"/>
      <point x="622" y="1206" type="curve" smooth="yes"/>
      <point x="544" y="1206"/>
      <point x="460" y="1147"/>
      <point x="444" y="1071" type="curve" smooth="yes"/>
      <point x="392" y="828" type="line"/>
      <point x="584" y="828" type="line"/>
      <point x="571" y="770" type="line"/>
      <point x="380" y="770" type="line"/>
      <point x="232" y="62" type="line"/>
      <point x="431" y="62" type="line"/>
      <point x="418" y="0" type="line"/>
      <point x="-35" y="0" type="line"/>
      <point x="-21" y="62" type="line"/>
      <point x="150" y="62" type="line"/>
      <point x="296" y="770" type="line"/>
      <point x="121" y="770" type="line"/>
      <point x="135" y="828" type="line"/>
      <point x="311" y="828" type="line"/>
      <point x="361" y="1069" type="line"/>
      <point x="383" y="1181"/>
      <point x="505" y="1267"/>
      <point x="622" y="1267" type="curve" smooth="yes"/>
      <point x="674" y="1267"/>
      <point x="724" y="1251"/>
    </contour>
  </outline>
</glyph>
<glyph name="h" format="1">
  <advance width="1012"/>
  <unicode hex="0068"/>
  <outline>
    <contour>
      <point x="420" y="1265" type="line"/>
      <point x="297" y="694" type="line"/>
      <point x="370" y="793"/>
      <point x="476" y="851"/>
      <point x="591" y="851" type="curve" smooth="yes"/>
      <point x="743" y="851"/>
      <point x="807" y="758"/>
      <point x="807" y="639" type="curve" smooth="yes"/>
      <point x="807" y="610"/>
      <point x="804" y="577"/>
      <point x="797" y="545" type="curve" smooth="yes"/>
      <point x="716" y="202" type="line" smooth="yes"/>
      <point x="712" y="185"/>
      <point x="702" y="152"/>
      <point x="702" y="121" type="curve" smooth="yes"/>
      <point x="702" y="85"/>
      <point x="716" y="52"/>
      <point x="763" y="52" type="curve" smooth="yes"/>
      <point x="828" y="52"/>
      <point x="867" y="134"/>
      <point x="889" y="210" type="curve"/>
      <point x="946" y="188" type="line"/>
      <point x="919" y="64"/>
      <point x="849" y="-9"/>
      <point x="759" y="-9" type="curve" smooth="yes"/>
      <point x="658" y="-9"/>
      <point x="624" y="54"/>
      <point x="624" y="129" type="curve" smooth="yes"/>
      <point x="624" y="152"/>
      <point x="627" y="176"/>
      <point x="633" y="201" type="curve" smooth="yes"/>
      <point x="718" y="550" type="line"/>
      <point x="726" y="577"/>
      <point x="729" y="608"/>
      <point x="729" y="633" type="curve" smooth="yes"/>
      <point x="729" y="720"/>
      <point x="688" y="789"/>
      <point x="581" y="789" type="curve" smooth="yes"/>
      <point x="469" y="789"/>
      <point x="299" y="687"/>
      <point x="256" y="469" type="curve" smooth="yes"/>
      <point x="163" y="0" type="line"/>
      <point x="78" y="0" type="line"/>
      <point x="322" y="1208" type="line"/>
      <point x="154" y="1208" type="line"/>
      <point x="166" y="1265" type="line"/>
    </contour>
  </outline>
</glyph>
<glyph name="i" format="1">
  <advance width="514"/>
  <unicode hex="0069"/>
  <outline>
    <contour>
      <point x="136" y="208" type="curve" smooth="yes"/>
      <point x="252" y="770" type="line"/>
      <point x="84" y="770" type="line"/>
      <point x="96" y="828" type="line"/>
      <point x="350" y="828" type="line"/>
      <point x="221" y="210" type="line" smooth="yes"/>
      <point x="216" y="185"/>
      <point x="208" y="156"/>
      <point x="208" y="129" type="curve" smooth="yes"/>
      <point x="208" y="87"/>
      <point x="224" y="52"/>
      <point x="276" y="52" type="curve" smooth="yes"/>
      <point x="342" y="52"/>
      <point x="376" y="135"/>
      <point x="400" y="213" type="curve"/>
      <point x="454" y="192" type="line"/>
      <point x="420" y="65"/>
      <point x="362" y="-9"/>
      <point x="265" y="-9" type="curve" smooth="yes"/>
      <point x="172" y="-9"/>
      <point x="129" y="56"/>
      <point x="129" y="143" type="curve" smooth="yes"/>
      <point x="129" y="163"/>
      <point x="131" y="186"/>
    </contour>
    <contour>
      <point x="344" y="1024" type="curve" smooth="yes"/>
      <point x="304" y="1024"/>
      <point x="274" y="1056"/>
      <point x="274" y="1093" type="curve" smooth="yes"/>
      <point x="274" y="1136"/>
      <point x="304" y="1164"/>
      <point x="342" y="1164" type="curve" smooth="yes"/>
      <point x="395" y="1164"/>
      <point x="417" y="1126"/>
      <point x="417" y="1093" type="curve" smooth="yes"/>
      <point x="417" y="1059"/>
      <point x="390" y="1024"/>
    </contour>
  </outline>
</glyph>
<glyph name="j" format="1">
  <advance width="422"/>
  <unicode hex="006A"/>
  <outline>
    <contour>
      <point x="340" y="1024" type="curve" smooth="yes"/>
      <point x="300" y="1024"/>
      <point x="270" y="1056"/>
      <point x="270" y="1093" type="curve" smooth="yes"/>
      <point x="270" y="1136"/>
      <point x="300" y="1164"/>
      <point x="338" y="1164" type="curve" smooth="yes"/>
      <point x="391" y="1164"/>
      <point x="413" y="1126"/>
      <point x="413" y="1093" type="curve" smooth="yes"/>
      <point x="413" y="1059"/>
      <point x="386" y="1024"/>
    </contour>
    <contour>
      <point x="79" y="-36" type="curve" smooth="yes"/>
      <point x="250" y="769" type="line"/>
      <point x="108" y="769" type="line"/>
      <point x="120" y="828" type="line"/>
      <point x="344" y="828" type="line"/>
      <point x="165" y="-22" type="line"/>
      <point x="137" y="-149"/>
      <point x="110" y="-282"/>
      <point x="-113" y="-282" type="curve" smooth="yes"/>
      <point x="-195" y="-282" type="line"/>
      <point x="-182" y="-219" type="line"/>
      <point x="-99" y="-219" type="line" smooth="yes"/>
      <point x="40" y="-219"/>
      <point x="54" y="-155"/>
    </contour>
  </outline>
</glyph>
<glyph name="k" format="1">
  <advance width="909"/>
  <unicode hex="006B"/>
  <outline>
    <contour>
      <point x="432" y="390" type="line"/>
      <point x="249" y="390" type="line"/>
      <point x="169" y="0" type="line"/>
      <point x="84" y="0" type="line"/>
      <point x="340" y="1225" type="line"/>
      <point x="171" y="1225" type="line"/>
      <point x="184" y="1283" type="line"/>
      <point x="437" y="1283" type="line"/>
      <point x="263" y="449" type="line"/>
      <point x="438" y="449" type="line"/>
      <point x="621" y="748" type="line" smooth="yes"/>
      <point x="674" y="835"/>
      <point x="709" y="850"/>
      <point x="777" y="851" type="curve" smooth="yes"/>
      <point x="851" y="852" type="line"/>
      <point x="839" y="790" type="line"/>
      <point x="800" y="790" type="line" smooth="yes"/>
      <point x="737" y="790"/>
      <point x="725" y="751"/>
      <point x="697" y="708" type="curve" smooth="yes"/>
      <point x="514" y="417" type="line"/>
      <point x="583" y="158" type="line" smooth="yes"/>
      <point x="595" y="116"/>
      <point x="604" y="52"/>
      <point x="654" y="52" type="curve" smooth="yes"/>
      <point x="722" y="52"/>
      <point x="755" y="135"/>
      <point x="781" y="213" type="curve"/>
      <point x="835" y="192" type="line"/>
      <point x="801" y="65"/>
      <point x="743" y="-9"/>
      <point x="645" y="-9" type="curve" smooth="yes"/>
      <point x="551" y="-9"/>
      <point x="521" y="58"/>
      <point x="499" y="143" type="curve"/>
    </contour>
  </outline>
</glyph>
<glyph name="l" format="1">
  <advance width="467"/>
  <unicode hex="006C"/>
  <outline>
    <contour>
      <point x="91" y="208" type="curve" smooth="yes"/>
      <point x="304" y="1225" type="line"/>
      <point x="135" y="1225" type="line"/>
      <point x="148" y="1283" type="line"/>
      <point x="401" y="1283" type="line"/>
      <point x="176" y="210" type="line" smooth="yes"/>
      <point x="171" y="185"/>
      <point x="166" y="156"/>
      <point x="166" y="129" type="curve" smooth="yes"/>
      <point x="166" y="87"/>
      <point x="181" y="52"/>
      <point x="231" y="52" type="curve" smooth="yes"/>
      <point x="298" y="52"/>
      <point x="332" y="135"/>
      <point x="356" y="213" type="curve"/>
      <point x="410" y="192" type="line"/>
      <point x="378" y="65"/>
      <point x="320" y="-9"/>
      <point x="222" y="-9" type="curve" smooth="yes"/>
      <point x="128" y="-9"/>
      <point x="84" y="56"/>
      <point x="84" y="143" type="curve" smooth="yes"/>
      <point x="84" y="163"/>
      <point x="86" y="187"/>
    </contour>
  </outline>
</glyph>
<glyph name="n" format="1">
  <advance width="1024"/>
  <unicode hex="006E"/>
  <outline>
    <contour>
      <point x="96" y="0" type="line"/>
      <point x="247" y="770" type="line"/>
      <point x="84" y="770" type="line"/>
      <point x="97" y="828" type="line"/>
      <point x="340" y="828" type="line"/>
      <point x="298" y="669" type="line"/>
      <point x="373" y="782"/>
      <point x="482" y="851"/>
      <point x="611" y="851" type="curve" smooth="yes"/>
      <point x="762" y="851"/>
      <point x="825" y="758"/>
      <point x="825" y="639" type="curve" smooth="yes"/>
      <point x="825" y="610"/>
      <point x="822" y="577"/>
      <point x="815" y="545" type="curve" smooth="yes"/>
      <point x="734" y="202" type="line" smooth="yes"/>
      <point x="729" y="182"/>
      <point x="723" y="152"/>
      <point x="723" y="123" type="curve" smooth="yes"/>
      <point x="723" y="85"/>
      <point x="736" y="52"/>
      <point x="781" y="52" type="curve" smooth="yes"/>
      <point x="848" y="52"/>
      <point x="886" y="134"/>
      <point x="906" y="210" type="curve"/>
      <point x="964" y="188" type="line"/>
      <point x="937" y="64"/>
      <point x="871" y="-9"/>
      <point x="771" y="-9" type="curve" smooth="yes"/>
      <point x="686" y="-9"/>
      <point x="642" y="50"/>
      <point x="642" y="125" type="curve" smooth="yes"/>
      <point x="642" y="150"/>
      <point x="645" y="176"/>
      <point x="651" y="201" type="curve" smooth="yes"/>
      <point x="736" y="550" type="line" smooth="yes"/>
      <point x="743" y="579"/>
      <point x="747" y="608"/>
      <point x="747" y="635" type="curve" smooth="yes"/>
      <point x="747" y="721"/>
      <point x="705" y="789"/>
      <point x="598" y="789" type="curve" smooth="yes"/>
      <point x="489" y="789"/>
      <point x="316" y="688"/>
      <point x="273" y="469" type="curve" smooth="yes"/>
      <point x="181" y="0" type="line"/>
    </contour>
  </outline>
</glyph>
<glyph name="o" format="1">
  <advance width="909"/>
  <unicode hex="006F"/>
  <outline>
    <contour>
      <point x="66" y="345" type="curve" smooth="yes"/>
      <point x="66" y="583"/>
      <point x="232" y="851"/>
      <point x="500" y="851" type="curve" smooth="yes"/>
      <point x="735" y="851"/>
      <point x="841" y="674"/>
      <point x="841" y="479" type="curve" smooth="yes"/>
      <point x="841" y="243"/>
      <point x="685" y="-18"/>
      <point x="417" y="-18" type="curve" smooth="yes"/>
      <point x="172" y="-18"/>
      <point x="66" y="154"/>
    </contour>
    <contour>
      <point x="767" y="478" type="curve" smooth="yes"/>
      <point x="767" y="642"/>
      <point x="684" y="789"/>
      <point x="500" y="789" type="curve" smooth="yes"/>
      <point x="284" y="789"/>
      <point x="148" y="552"/>
      <point x="148" y="345" type="curve" smooth="yes"/>
      <point x="148" y="185"/>
      <point x="229" y="43"/>
      <point x="418" y="43" type="curve" smooth="yes"/>
      <point x="638" y="43"/>
      <point x="767" y="273"/>
    </contour>
  </outline>
</glyph>
<glyph name="t" format="1">
  <advance width="553"/>
  <unicode hex="0074"/>
  <outline>
    <contour>
      <point x="70" y="770" type="line"/>
      <point x="85" y="828" type="line"/>
      <point x="247" y="828" type="line"/>
      <point x="313" y="1141" type="line"/>
      <point x="404" y="1177" type="line"/>
      <point x="330" y="828" type="line"/>
      <point x="503" y="828" type="line"/>
      <point x="487" y="770" type="line"/>
      <point x="319" y="770" type="line"/>
      <point x="202" y="210" type="line" smooth="yes"/>
      <point x="196" y="185"/>
      <point x="190" y="156"/>
      <point x="190" y="129" type="curve" smooth="yes"/>
      <point x="190" y="87"/>
      <point x="207" y="52"/>
      <point x="257" y="52" type="curve" smooth="yes"/>
      <point x="324" y="52"/>
      <point x="358" y="135"/>
      <point x="382" y="213" type="curve"/>
      <point x="436" y="192" type="line"/>
      <point x="403" y="65"/>
      <point x="344" y="-9"/>
      <point x="247" y="-9" type="curve" smooth="yes"/>
      <point x="154" y="-9"/>
      <point x="110" y="56"/>
      <point x="110" y="143" type="curve" smooth="yes"/>
      <point x="110" y="163"/>
      <point x="112" y="187"/>
      <point x="117" y="208" type="curve" smooth="yes"/>
      <point x="234" y="770" type="line"/>
    </contour>
  </outline>
</glyph>
<glyph name="v" format="1">
  <advance width="831"/>
  <unicode hex="0076"/>
  <outline>
    <contour>
      <point x="156" y="771" type="line"/>
      <point x="6" y="771" type="line"/>
      <point x="17" y="828" type="line"/>
      <point x="226" y="828" type="line"/>
      <point x="320" y="60" type="line"/>
      <point x="580" y="457" type="line" smooth="yes"/>
      <point x="643" y="553"/>
      <point x="697" y="667"/>
      <point x="697" y="774" type="curve" smooth="yes"/>
      <point x="697" y="797"/>
      <point x="694" y="819"/>
      <point x="688" y="840" type="curve"/>
      <point x="730" y="840" type="line" smooth="yes"/>
      <point x="784" y="840"/>
      <point x="789" y="786"/>
      <point x="789" y="760" type="curve" smooth="yes"/>
      <point x="789" y="673"/>
      <point x="747" y="581"/>
      <point x="635" y="415" type="curve" smooth="yes"/>
      <point x="368" y="21" type="line"/>
      <point x="347" y="-7"/>
      <point x="314" y="-19"/>
      <point x="296" y="-19" type="curve" smooth="yes"/>
      <point x="272" y="-19"/>
      <point x="255" y="-3"/>
      <point x="252" y="23" type="curve" smooth="yes"/>
    </contour>
  </outline>
</glyph>
<glyph name="w" format="1">
  <advance width="1307"/>
  <unicode hex="0077"/>
  <outline>
    <contour>
      <point x="159" y="771" type="line"/>
      <point x="8" y="771" type="line"/>
      <point x="20" y="828" type="line"/>
      <point x="229" y="828" type="line"/>
      <point x="282" y="60" type="line"/>
      <point x="707" y="828" type="line"/>
      <point x="757" y="828" type="line"/>
      <point x="819" y="60" type="line"/>
      <point x="1058" y="457" type="line"/>
      <point x="1119" y="554"/>
      <point x="1175" y="667"/>
      <point x="1175" y="774" type="curve" smooth="yes"/>
      <point x="1175" y="797"/>
      <point x="1171" y="819"/>
      <point x="1166" y="840" type="curve"/>
      <point x="1208" y="840" type="line" smooth="yes"/>
      <point x="1262" y="840"/>
      <point x="1267" y="786"/>
      <point x="1267" y="760" type="curve" smooth="yes"/>
      <point x="1267" y="673"/>
      <point x="1219" y="585"/>
      <point x="1113" y="415" type="curve" smooth="yes"/>
      <point x="867" y="21" type="line"/>
      <point x="845" y="-7"/>
      <point x="813" y="-19"/>
      <point x="794" y="-19" type="curve" smooth="yes"/>
      <point x="771" y="-19"/>
      <point x="752" y="-3"/>
      <point x="750" y="23" type="curve" smooth="yes"/>
      <point x="695" y="660" type="line"/>
      <point x="329" y="21" type="line"/>
      <point x="308" y="-7"/>
      <point x="275" y="-19"/>
      <point x="257" y="-19" type="curve" smooth="yes"/>
      <point x="234" y="-19"/>
      <point x="214" y="-3"/>
      <point x="213" y="23" type="curve" smooth="yes"/>
    </contour>
  </outline>
</glyph>
<glyph name="x" format="1">
  <advance width="948"/>
  <unicode hex="0078"/>
  <outline>
    <contour>
      <point x="363" y="715" type="curve" smooth="yes"/>
      <point x="446" y="504" type="line"/>
      <point x="604" y="744" type="line" smooth="yes"/>
      <point x="637" y="795"/>
      <point x="689" y="835"/>
      <point x="748" y="835" type="curve" smooth="yes"/>
      <point x="789" y="835"/>
      <point x="835" y="816"/>
      <point x="880" y="767" type="curve"/>
      <point x="833" y="710" type="line"/>
      <point x="805" y="747"/>
      <point x="777" y="767"/>
      <point x="747" y="767" type="curve" smooth="yes"/>
      <point x="715" y="767"/>
      <point x="682" y="741"/>
      <point x="647" y="687" type="curve" smooth="yes"/>
      <point x="476" y="428" type="line"/>
      <point x="603" y="109" type="line" smooth="yes"/>
      <point x="620" y="66"/>
      <point x="645" y="49"/>
      <point x="672" y="49" type="curve" smooth="yes"/>
      <point x="715" y="49"/>
      <point x="759" y="94"/>
      <point x="776" y="171" type="curve"/>
      <point x="836" y="159" type="line"/>
      <point x="828" y="49"/>
      <point x="741" y="-15"/>
      <point x="662" y="-15" type="curve" smooth="yes"/>
      <point x="609" y="-15"/>
      <point x="562" y="11"/>
      <point x="538" y="72" type="curve" smooth="yes"/>
      <point x="426" y="353" type="line"/>
      <point x="240" y="69" type="line" smooth="yes"/>
      <point x="206" y="18"/>
      <point x="149" y="-17"/>
      <point x="95" y="-17" type="curve" smooth="yes"/>
      <point x="54" y="-17"/>
      <point x="8" y="2"/>
      <point x="-37" y="51" type="curve"/>
      <point x="9" y="108" type="line"/>
      <point x="39" y="70"/>
      <point x="66" y="51"/>
      <point x="96" y="51" type="curve" smooth="yes"/>
      <point x="128" y="51"/>
      <point x="162" y="71"/>
      <point x="198" y="125" type="curve" smooth="yes"/>
      <point x="396" y="427" type="line"/>
      <point x="299" y="670" type="line"/>
      <point x="271" y="737"/>
      <point x="243" y="769"/>
      <point x="205" y="769" type="curve" smooth="yes"/>
      <point x="177" y="769"/>
      <point x="151" y="758"/>
      <point x="120" y="731" type="curve"/>
      <point x="89" y="798" type="line"/>
      <point x="135" y="826"/>
      <point x="177" y="837"/>
      <point x="215" y="837" type="curve" smooth="yes"/>
      <point x="292" y="837"/>
      <point x="335" y="784"/>
    </contour>
  </outline>
</glyph>
<glyph name="y" format="1">
  <advance width="907"/>
  <unicode hex="0079"/>
  <outline>
    <contour>
      <point x="592" y="51" type="curve"/>
      <point x="618" y="155" type="line"/>
      <point x="549" y="45"/>
      <point x="444" y="-19"/>
      <point x="324" y="-19" type="curve" smooth="yes"/>
      <point x="174" y="-19"/>
      <point x="110" y="78"/>
      <point x="110" y="206" type="curve" smooth="yes"/>
      <point x="110" y="229"/>
      <point x="111" y="257"/>
      <point x="117" y="286" type="curve" smooth="yes"/>
      <point x="212" y="770" type="line"/>
      <point x="49" y="770" type="line"/>
      <point x="63" y="828" type="line"/>
      <point x="304" y="828" type="line"/>
      <point x="197" y="283" type="line" smooth="yes"/>
      <point x="193" y="261"/>
      <point x="189" y="237"/>
      <point x="189" y="211" type="curve" smooth="yes"/>
      <point x="189" y="124"/>
      <point x="225" y="43"/>
      <point x="336" y="43" type="curve" smooth="yes"/>
      <point x="444" y="43"/>
      <point x="607" y="145"/>
      <point x="651" y="363" type="curve" smooth="yes"/>
      <point x="743" y="828" type="line"/>
      <point x="827" y="828" type="line"/>
      <point x="673" y="49" type="line" smooth="yes"/>
      <point x="621" y="-212"/>
      <point x="476" y="-312"/>
      <point x="279" y="-312" type="curve" smooth="yes"/>
      <point x="183" y="-312"/>
      <point x="95" y="-285"/>
      <point x="25" y="-225" type="curve"/>
      <point x="62" y="-174" type="line"/>
      <point x="111" y="-219"/>
      <point x="186" y="-251"/>
      <point x="279" y="-251" type="curve" smooth="yes"/>
      <point x="447" y="-251"/>
      <point x="537" y="-179"/>
    </contour>
  </outline>
</glyph>
<glyph name="z" format="1">
  <advance width="778"/>
  <unicode hex="007A"/>
  <outline>
    <contour>
      <point x="575" y="0" type="curve"/>
      <point x="26" y="0" type="line" smooth="yes"/>
      <point x="12" y="0"/>
      <point x="8" y="15"/>
      <point x="6" y="29" type="curve"/>
      <point x="591" y="770" type="line"/>
      <point x="247" y="770" type="line"/>
      <point x="162" y="640" type="line"/>
      <point x="93" y="659" type="line"/>
      <point x="188" y="828" type="line"/>
      <point x="722" y="828" type="line"/>
      <point x="717" y="809"/>
      <point x="706" y="786"/>
      <point x="694" y="771" type="curve" smooth="yes"/>
      <point x="526" y="561"/>
      <point x="145" y="63"/>
      <point x="140" y="58" type="curve"/>
      <point x="533" y="58" type="line"/>
      <point x="547" y="84"/>
      <point x="561" y="124"/>
      <point x="575" y="206" type="curve"/>
      <point x="635" y="184" type="line"/>
      <point x="623" y="91"/>
      <point x="607" y="33"/>
    </contour>
  </outline>
</glyph>
<glyph name="guillemotleft" format="1">
  <advance width="803"/>
  <unicode hex="00AB"/>
  <outline>
    <contour>
      <point x="337" y="691" type="line"/>
      <point x="705" y="1085" type="line"/>
      <point x="755" y="1085" type="line"/>
      <point x="450" y="691" type="line"/>
      <point x="585" y="293" type="line"/>
      <point x="536" y="293" type="line"/>
    </contour>
    <contour>
      <point x="59" y="691" type="line"/>
      <point x="425" y="1085" type="line"/>
      <point x="475" y="1085" type="line"/>
      <point x="171" y="691" type="line"/>
      <point x="307" y="293" type="line"/>
      <point x="257" y="293" type="line"/>
    </contour>
  </outline>
</glyph>
<glyph name="macron" format="1">
  <advance width="559"/>
  <unicode hex="00AF"/>
  <outline>
    <contour>
      <point x="68" y="1101" type="line"/>
      <point x="84" y="1168" type="line"/>
      <point x="490" y="1168" type="line"/>
      <point x="475" y="1101" type="line"/>
    </contour>
  </outline>
</glyph>
<glyph name="acute" format="1">
  <advance width="446"/>
  <unicode hex="00B4"/>
  <outline>
    <contour>
      <point x="191" y="1025" type="line"/>
      <point x="158" y="1025" type="line"/>
      <point x="274" y="1284" type="line"/>
      <point x="406" y="1284" type="line"/>
    </contour>
  </outline>
</glyph>
<glyph name="guillemotright" format="1">
  <advance width="799"/>
  <unicode hex="00BB"/>
  <outline>
    <contour>
      <point x="249" y="1085" type="line"/>
      <point x="449" y="691" type="line"/>
      <point x="81" y="293" type="line"/>
      <point x="31" y="293" type="line"/>
      <point x="337" y="691" type="line"/>
      <point x="199" y="1085" type="line"/>
    </contour>
    <contour>
      <point x="528" y="1085" type="line"/>
      <point x="729" y="691" type="line"/>
      <point x="359" y="293" type="line"/>
      <point x="310" y="293" type="line"/>
      <point x="616" y="691" type="line"/>
      <point x="478" y="1085" type="line"/>
    </contour>
  </outline>
</glyph>
<glyph name="onequarter" format="1">
  <advance width="1462"/>
  <unicode hex="00BC"/>
  <outline>
    <contour>
      <point x="200" y="444" type="line"/>
      <point x="323" y="444" type="line"/>
      <point x="309" y="379" type="line"/>
      <point x="-16" y="379" type="line"/>
      <point x="-3" y="444" type="line"/>
      <point x="124" y="444" type="line"/>
      <point x="284" y="1198" type="line"/>
      <point x="169" y="1178" type="line"/>
      <point x="169" y="1245" type="line"/>
      <point x="380" y="1284" type="line"/>
    </contour>
    <contour>
      <point x="804" y="270" type="line"/>
      <point x="807" y="328" type="line"/>
      <point x="1281" y="901" type="line"/>
      <point x="1376" y="901" type="line"/>
      <point x="1256" y="336" type="line"/>
      <point x="1441" y="336" type="line"/>
      <point x="1427" y="270" type="line"/>
      <point x="1242" y="270" type="line"/>
      <point x="1197" y="63" type="line"/>
      <point x="1314" y="63" type="line"/>
      <point x="1301" y="0" type="line"/>
      <point x="992" y="0" type="line"/>
      <point x="1005" y="63" type="line"/>
      <point x="1121" y="63" type="line"/>
      <point x="1166" y="270" type="line"/>
    </contour>
    <contour>
      <point x="902" y="336" type="curve"/>
      <point x="1180" y="336" type="line"/>
      <point x="1279" y="799" type="line"/>
      <point x="1150" y="641"/>
      <point x="1030" y="496"/>
    </contour>
    <contour>
      <point x="356" y="-23" type="line"/>
      <point x="1026" y="1306" type="line"/>
      <point x="1100" y="1306" type="line"/>
      <point x="435" y="-23" type="line"/>
    </contour>
  </outline>
</glyph>
<glyph name="Eth" format="1">
  <advance width="1270"/>
  <unicode hex="00D0"/>
  <outline>
    <contour>
      <point x="571" y="731" type="line"/>
      <point x="554" y="667" type="line"/>
      <point x="353.434" y="667" type="line"/>
      <point x="227" y="62" type="line"/>
      <point x="564" y="62" type="line" smooth="yes"/>
      <point x="952" y="62"/>
      <point x="1131" y="429"/>
      <point x="1131" y="744" type="curve" smooth="yes"/>
      <point x="1131" y="985"/>
      <point x="1009" y="1220"/>
      <point x="694" y="1220" type="curve" smooth="yes"/>
      <point x="469" y="1220" type="line"/>
      <point x="366.808" y="731" type="line"/>
    </contour>
    <contour>
      <point x="565" y="0" type="curve" smooth="yes"/>
      <point x="-45" y="0" type="line"/>
      <point x="-34" y="62" type="line"/>
      <point x="144" y="62" type="line"/>
      <point x="268.344" y="667" type="line"/>
      <point x="113" y="667" type="line"/>
      <point x="129" y="731" type="line"/>
      <point x="281.497" y="731" type="line"/>
      <point x="382" y="1220" type="line"/>
      <point x="189" y="1220" type="line"/>
      <point x="199" y="1283" type="line"/>
      <point x="693" y="1283" type="line" smooth="yes"/>
      <point x="1016" y="1283"/>
      <point x="1215" y="1042"/>
      <point x="1215" y="746" type="curve" smooth="yes"/>
      <point x="1215" y="353"/>
      <point x="978" y="0"/>
    </contour>
  </outline>
</glyph>
<glyph name="Lslash" format="1">
  <advance width="1081"/>
  <unicode hex="0141"/>
  <outline>
    <contour>
      <point x="879" y="334" type="line"/>
      <point x="964" y="334" type="line"/>
      <point x="896" y="0" type="line"/>
      <point x="159" y="0" type="line"/>
      <point x="-53" y="0" type="line"/>
      <point x="-42" y="62" type="line"/>
      <point x="136" y="62" type="line"/>
      <point x="268" y="705" type="line"/>
      <point x="92" y="663" type="line"/>
      <point x="107" y="725" type="line"/>
      <point x="281" y="767" type="line"/>
      <point x="381" y="1248" type="line"/>
      <point x="187" y="1248" type="line"/>
      <point x="198" y="1311" type="line"/>
      <point x="668" y="1311" type="line"/>
      <point x="657" y="1248" type="line"/>
      <point x="467" y="1248" type="line"/>
      <point x="371" y="789" type="line"/>
      <point x="641" y="855" type="line"/>
      <point x="629" y="793" type="line"/>
      <point x="358" y="727" type="line"/>
      <point x="219" y="62" type="line"/>
      <point x="823" y="62" type="line"/>
    </contour>
  </outline>
</glyph>
<glyph name="oe" format="1">
  <advance width="1565"/>
  <unicode hex="0153"/>
  <outline>
    <contour>
      <point x="61" y="356" type="curve" smooth="yes"/>
      <point x="61" y="615"/>
      <point x="227" y="851"/>
      <point x="496" y="851" type="curve" smooth="yes"/>
      <point x="659" y="851"/>
      <point x="774" y="750"/>
      <point x="819" y="610" type="curve"/>
      <point x="885" y="747"/>
      <point x="1010" y="851"/>
      <point x="1182" y="851" type="curve" smooth="yes"/>
      <point x="1366" y="851"/>
      <point x="1481" y="711"/>
      <point x="1481" y="532" type="curve" smooth="yes"/>
      <point x="1481" y="503"/>
      <point x="1475" y="440"/>
      <point x="1469" y="420" type="curve"/>
      <point x="840" y="420" type="line"/>
      <point x="840" y="420"/>
      <point x="833" y="382"/>
      <point x="833" y="358" type="curve" smooth="yes"/>
      <point x="833" y="156"/>
      <point x="958" y="43"/>
      <point x="1103" y="43" type="curve" smooth="yes"/>
      <point x="1201" y="43"/>
      <point x="1310" y="95"/>
      <point x="1396" y="208" type="curve"/>
      <point x="1446" y="170" type="line"/>
      <point x="1359" y="43"/>
      <point x="1225" y="-18"/>
      <point x="1100" y="-18" type="curve" smooth="yes"/>
      <point x="962" y="-18"/>
      <point x="831" y="59"/>
      <point x="781" y="212" type="curve"/>
      <point x="714" y="75"/>
      <point x="587" y="-18"/>
      <point x="413" y="-18" type="curve" smooth="yes"/>
      <point x="181" y="-18"/>
      <point x="61" y="164"/>
    </contour>
    <contour>
      <point x="760" y="469" type="curve" smooth="yes"/>
      <point x="760" y="631"/>
      <point x="687" y="789"/>
      <point x="496" y="789" type="curve" smooth="yes"/>
      <point x="264" y="789"/>
      <point x="146" y="566"/>
      <point x="146" y="356" type="curve" smooth="yes"/>
      <point x="146" y="216"/>
      <point x="222" y="43"/>
      <point x="414" y="43" type="curve" smooth="yes"/>
      <point x="653" y="43"/>
      <point x="760" y="271"/>
    </contour>
    <contour>
      <point x="1413" y="542" type="curve" smooth="yes"/>
      <point x="1413" y="684"/>
      <point x="1322" y="789"/>
      <point x="1184" y="789" type="curve" smooth="yes"/>
      <point x="1034" y="789"/>
      <point x="894" y="678"/>
      <point x="849" y="476" type="curve"/>
      <point x="1407" y="476" type="line"/>
      <point x="1411" y="500"/>
      <point x="1413" y="521"/>
    </contour>
  </outline>
</glyph>
<glyph name="trademark" format="1">
  <advance width="1712"/>
  <unicode hex="2122"/>
  <outline>
    <contour>
      <point x="210" y="1286" type="line"/>
      <point x="784" y="1286" type="line"/>
      <point x="739" y="1068" type="line"/>
      <point x="679" y="1068" type="line"/>
      <point x="714" y="1231" type="line"/>
      <point x="514" y="1231" type="line"/>
      <point x="399" y="686" type="line"/>
      <point x="490" y="686" type="line"/>
      <point x="478" y="636" type="line"/>
      <point x="238" y="636" type="line"/>
      <point x="248" y="686" type="line"/>
      <point x="338" y="686" type="line"/>
      <point x="453" y="1231" type="line"/>
      <point x="257" y="1231" type="line"/>
      <point x="222" y="1068" type="line"/>
      <point x="164" y="1068" type="line"/>
    </contour>
    <contour>
      <point x="1175" y="664" type="line"/>
      <point x="1037" y="1160" type="line"/>
      <point x="936" y="687" type="line"/>
      <point x="1020" y="687" type="line"/>
      <point x="1010" y="636" type="line"/>
      <point x="784" y="636" type="line"/>
      <point x="795" y="687" type="line"/>
      <point x="877" y="687" type="line"/>
      <point x="993" y="1235" type="line"/>
      <point x="912" y="1235" type="line"/>
      <point x="922" y="1286" type="line"/>
      <point x="1069" y="1286" type="line"/>
      <point x="1202" y="790" type="line"/>
      <point x="1313" y="953"/>
      <point x="1427" y="1124"/>
      <point x="1537" y="1286" type="curve"/>
      <point x="1683" y="1286" type="line"/>
      <point x="1673" y="1235" type="line"/>
      <point x="1592" y="1235" type="line"/>
      <point x="1475" y="687" type="line"/>
      <point x="1557" y="687" type="line"/>
      <point x="1546" y="636" type="line"/>
      <point x="1323" y="636" type="line"/>
      <point x="1333" y="687" type="line"/>
      <point x="1415" y="687" type="line"/>
      <point x="1515" y="1159" type="line"/>
    </contour>
  </outline>
</glyph>
